<svg width="1116" height="192" viewBox="0 0 1116 192" fill="none" xmlns="http://www.w3.org/2000/svg">
<mask id="mask0_101_18708" style="mask-type:alpha" maskUnits="userSpaceOnUse" x="0" y="0" width="1116" height="192">
<rect width="1116" height="192" fill="#00CEAF"/>
</mask>
<g mask="url(#mask0_101_18708)">
<path d="M20.104 -8.6344C28.8906 -6.78865 37.1544 -5.05166 45.1429 -3.37497C43.5152 3.90493 41.8765 11.2068 40.2424 18.5157C32.4027 16.8123 24.1017 15.01 15.508 13.1438C13.4488 22.231 11.559 30.5686 9.73452 38.6257C2.14248 37.08 -5.19392 35.5874 -12.5465 34.0854C-10.7171 26.0201 -8.85177 17.7927 -6.96488 9.48178C-15.7151 7.67695 -24.0201 5.96168 -32.0486 4.30091C-30.309 -3.42846 -28.6671 -10.7175 -26.9467 -18.36C-19.0758 -16.7562 -10.703 -15.045 -1.84081 -13.2381C-0.0744815 -21.759 1.6504 -30.0793 3.33738 -38.2014C11.0134 -36.5958 18.335 -35.0639 25.552 -33.5537C23.801 -25.5539 21.9854 -17.2494 20.103 -8.64369L20.104 -8.6344Z" fill="#01C3A6"/>
<path d="M308.487 41.4999C312.032 39.8049 315.367 38.2111 318.59 36.6696C319.96 39.6333 321.332 42.6076 322.708 45.583C319.529 47.0757 316.164 48.6567 312.68 50.2932C314.381 54 315.941 57.401 317.45 60.6873C314.399 62.1689 311.452 63.601 308.496 65.0341C306.988 61.7438 305.448 58.3875 303.894 54.9964C300.372 56.696 297.029 58.3082 293.796 59.8659C292.345 56.7162 290.978 53.7456 289.543 50.6312C292.706 49.0956 296.072 47.4639 299.633 45.7353C297.981 42.3034 296.368 38.9521 294.795 35.6799C297.89 34.1968 300.843 32.7823 303.754 31.388C305.272 34.6348 306.85 38.0046 308.484 41.4969L308.487 41.4999Z" fill="#01C3A6"/>
<path d="M632.502 167.425C637.646 160.066 642.484 153.145 647.162 146.456C640.993 142.261 634.802 138.058 628.609 133.846C624.058 140.453 619.238 147.447 614.248 154.689C606.528 149.471 599.445 144.685 592.601 140.058C588.122 146.38 583.794 152.488 579.46 158.615C586.313 163.244 593.303 167.968 600.366 172.737C595.22 180.041 590.338 186.974 585.62 193.679C592.177 198.125 598.362 202.317 604.847 206.713C609.489 200.158 614.423 193.18 619.649 185.798C626.768 190.803 633.719 195.69 640.507 200.459C645.006 194.035 649.297 187.908 653.526 181.869C646.775 177.233 639.769 172.42 632.507 167.432L632.502 167.425Z" fill="#01C3A6"/>
<path d="M872.618 10.2222C875.303 9.69735 877.827 9.20342 880.268 8.72668C879.803 6.50206 879.335 4.27071 878.869 2.03724C876.473 2.52273 873.937 3.03639 871.311 3.56829C870.722 0.791275 870.182 -1.75665 869.661 -4.21889C867.341 -3.78035 865.1 -3.35692 862.854 -2.93069C863.377 -0.465969 863.91 2.04832 864.449 4.58811C861.776 5.10064 859.239 5.58778 856.786 6.05949C857.283 8.42151 857.752 10.649 858.244 12.9844C860.648 12.5294 863.206 12.0438 865.913 11.5311C866.415 14.1344 866.905 16.6763 867.384 19.1578C869.73 18.7014 871.967 18.2659 874.172 17.8366C873.672 15.3922 873.155 12.8546 872.618 10.225L872.618 10.2222Z" fill="#01C3A6"/>
</g>
</svg>
