<svg width="64" height="34" viewBox="0 0 64 34" fill="none" xmlns="http://www.w3.org/2000/svg">
<rect width="64" height="34" fill="#E5E5E5"/>
<g id="Next college_iphone14" clip-path="url(#clip0_0_1)">
<rect width="430" height="6923" transform="translate(-346 -40)" fill="black"/>
<g id="Layer 1">
<g id="Group">
<path id="Vector" d="M0 0.0475402C0.199683 0.0304818 0.357222 0.00639941 0.513758 0.00639941C2.00486 0.00338911 3.49596 -0.0126658 4.98606 0.0214509C5.25197 0.0274715 5.5811 0.184007 5.76673 0.379677C7.84183 2.56114 12.3743 7.25821 12.3743 7.25821V0.0575745H17.8772V19.7279H12.4044V15.5335C10.1116 13.0852 7.8599 10.6789 5.50885 8.16833V19.7118H0V0.0475402Z" fill="#00CEAF"/>
<path id="Vector_2" d="M35.9239 10.9368C32.7019 12.3697 29.4889 13.7996 26.2468 15.2416C27.762 16.2139 29.4999 15.5576 31.7185 13.1945C32.8885 14.0836 34.0645 14.9787 35.2616 15.8888C34.4278 17.2063 33.3611 18.2097 32.0807 18.9673C28.4573 21.1116 24.0703 20.3621 21.3982 17.116C20.0165 15.4382 19.4716 13.4865 19.599 11.3011C19.7897 8.02486 22.2481 4.95636 25.5303 4.03019C28.943 3.06689 32.6176 4.31516 34.6997 7.44788C35.4764 8.61588 35.9209 9.93439 35.9249 10.9368H35.9239ZM29.3444 8.63996C27.3596 7.67165 24.6694 8.87978 24.3132 10.8626C25.9879 10.123 27.6305 9.39655 29.3444 8.63996Z" fill="#00CEAF"/>
<path id="Vector_3" d="M48.6011 11.9061C50.1163 13.4273 51.5412 14.8582 52.9189 16.241C51.6556 17.5003 50.3873 18.7626 49.1189 20.0269C47.7743 18.6582 46.3504 17.2093 44.8764 15.7091C43.294 17.2775 41.842 18.7164 40.4392 20.1072C39.1237 18.8027 37.8524 17.5424 36.579 16.2781C37.9838 14.8863 39.4167 13.4665 40.8647 12.0326C39.3515 10.5244 37.9156 9.09251 36.5278 7.70777C37.8714 6.3722 39.1388 5.11289 40.4673 3.79237C41.831 5.145 43.2809 6.58493 44.8162 8.10814C46.2672 6.61603 47.684 5.15905 49.0677 3.73718C50.3923 5.06473 51.6556 6.33106 52.9009 7.57933C51.5201 8.96808 50.0872 10.41 48.6021 11.9041L48.6011 11.9061Z" fill="#00CEAF"/>
<g id="Group_2">
<path id="Vector_4" d="M21.952 31.8323C21.6711 32.036 21.2697 32.1624 20.7349 32.1624C19.7435 32.1624 18.8564 31.5011 18.8564 30.2699C18.8564 29.0387 19.7706 28.3002 20.7559 28.3002C21.2627 28.3002 21.656 28.4055 21.9731 28.6514L21.7694 29.2424C21.4955 29.0527 21.2416 28.9193 20.778 28.9193C20.1589 28.9193 19.596 29.3839 19.596 30.2418C19.596 31.0998 20.1378 31.5503 20.771 31.5503C21.1724 31.5503 21.4674 31.4871 21.8055 31.2834L21.953 31.8323H21.952Z" fill="#00CEAF"/>
<path id="Vector_5" d="M24.7657 28.3013C25.7361 28.3013 26.7636 28.9344 26.7636 30.2148C26.7636 31.4952 25.7933 32.1635 24.7517 32.1635C23.7101 32.1635 22.8101 31.5303 22.8101 30.2499C22.8101 28.9696 23.7804 28.3013 24.7657 28.3013ZM24.7728 31.5514C25.4551 31.5514 26.018 31.1149 26.018 30.2499C26.018 29.385 25.427 28.9134 24.7798 28.9134C24.1677 28.9134 23.5486 29.3218 23.5486 30.2218C23.5486 31.1219 24.1045 31.5514 24.7728 31.5514Z" fill="#00CEAF"/>
<path id="Vector_6" d="M27.9937 27.1403H28.6971V32.0852H27.9937V27.1403Z" fill="#00CEAF"/>
<path id="Vector_7" d="M30.1812 27.1403H30.8846V32.0852H30.1812V27.1403Z" fill="#00CEAF"/>
<path id="Vector_8" d="M35.5624 31.7832C35.2032 32.022 34.6624 32.1705 34.0784 32.1705C32.8542 32.1705 32.1367 31.4671 32.1367 30.271C32.1367 29.0749 32.9525 28.3013 33.98 28.3013C35.0075 28.3013 35.7461 28.9274 35.7461 30.2359C35.7461 30.3202 35.739 30.4185 35.725 30.4747H32.8763C32.9465 31.2132 33.39 31.5725 34.1637 31.5725C34.6001 31.5725 34.9794 31.5022 35.43 31.2564L35.5634 31.7842L35.5624 31.7832ZM32.8823 29.968H35.0065C34.9363 29.2435 34.549 28.8983 33.966 28.8983C33.383 28.8983 32.9746 29.2565 32.8823 29.968Z" fill="#00CEAF"/>
<path id="Vector_9" d="M38.5375 28.3012C39.1355 28.3012 39.5931 28.5681 39.9092 29.0537V28.3925H40.6126V32.057C40.6126 33.0133 39.7617 33.6394 38.6639 33.6394C38.0659 33.6394 37.3835 33.4638 36.9762 33.1749L37.0956 32.5347C37.5461 32.8367 38.1933 32.9992 38.671 32.9992C39.3392 32.9992 39.9092 32.6621 39.9092 31.9938V31.3115C39.5931 31.8182 39.1426 32.057 38.5375 32.057C37.5601 32.057 36.7363 31.4379 36.7363 30.1997C36.7363 28.9614 37.5451 28.3002 38.5375 28.3002V28.3012ZM38.6077 31.4379C39.2901 31.4379 39.7617 30.9593 39.9092 30.2278V30.1997C39.7547 29.4541 39.2409 28.9193 38.6007 28.9193C37.9605 28.9193 37.4678 29.2996 37.4678 30.1856C37.4678 31.0014 37.9605 31.4379 38.6077 31.4379Z" fill="#00CEAF"/>
<path id="Vector_10" d="M45.291 31.7832C44.9317 32.022 44.3909 32.1705 43.8069 32.1705C42.5827 32.1705 41.8652 31.4671 41.8652 30.271C41.8652 29.0749 42.681 28.3013 43.7085 28.3013C44.7361 28.3013 45.4746 28.9274 45.4746 30.2359C45.4746 30.3202 45.4676 30.4185 45.4535 30.4747H42.6048C42.675 31.2132 43.1185 31.5725 43.8922 31.5725C44.3287 31.5725 44.708 31.5022 45.1585 31.2564L45.292 31.7842L45.291 31.7832ZM42.6108 29.968H44.7351C44.6648 29.2435 44.2775 28.8983 43.6945 28.8983C43.1115 28.8983 42.7031 29.2565 42.6108 29.968Z" fill="#00CEAF"/>
</g>
<path id="Vector_11" d="M63.9999 9.61934V4.10647H61.6198V0.0576172H56.129V4.10547H53.9023V9.61833H56.1571V15.8346C56.1571 17.9739 57.892 19.7089 60.0313 19.7089H63.45V14.0365H61.6188V9.61733H63.9989L63.9999 9.61934Z" fill="#00CEAF"/>
</g>
</g>
<g id="Group 113">
<rect id="Rectangle 5" x="-346" y="-40" width="430" height="932" fill="url(#paint0_linear_0_1)"/>
</g>
</g>
<defs>
<linearGradient id="paint0_linear_0_1" x1="-131" y1="-40" x2="-131" y2="892" gradientUnits="userSpaceOnUse">
<stop stop-opacity="0"/>
<stop offset="0.328051" stop-opacity="0.600647"/>
<stop offset="1"/>
</linearGradient>
<clipPath id="clip0_0_1">
<rect width="430" height="6923" fill="white" transform="translate(-346 -40)"/>
</clipPath>
</defs>
</svg>
