<svg width="188" height="32" viewBox="0 0 188 32" fill="none" xmlns="http://www.w3.org/2000/svg">
<path d="M14.1641 18.9238H3.90039L3.76367 17.1367L9.68164 7.78125H11.9473L9.53516 11.9609L6.58594 16.6387H14.1641V18.9238ZM12.5625 22H9.7207V7.78125H12.5625V22ZM17.543 22.1074C17.0612 22.1074 16.6738 21.9642 16.3809 21.6777C16.0879 21.3848 15.9414 21.0234 15.9414 20.5938C15.9414 20.1641 16.0879 19.8027 16.3809 19.5098C16.6738 19.2168 17.0612 19.0703 17.543 19.0703C18.0378 19.0703 18.4284 19.2168 18.7148 19.5098C19.0078 19.8027 19.1543 20.1641 19.1543 20.5938C19.1543 21.0234 19.0078 21.3848 18.7148 21.6777C18.4284 21.9642 18.0378 22.1074 17.543 22.1074ZM26.3027 22.1953C25.3913 22.1953 24.571 22.0423 23.8418 21.7363C23.1126 21.4238 22.5365 20.9648 22.1133 20.3594C21.6901 19.7474 21.4785 18.9922 21.4785 18.0938C21.4785 17.293 21.6868 16.5964 22.1035 16.0039C22.5267 15.4049 23.0996 14.946 23.8223 14.627C24.5449 14.3014 25.3652 14.1387 26.2832 14.1387C27.2077 14.1387 28.0312 14.3014 28.7539 14.627C29.4831 14.946 30.056 15.4049 30.4727 16.0039C30.8893 16.5964 31.0977 17.293 31.0977 18.0938C31.0977 18.9922 30.8861 19.7474 30.4629 20.3594C30.0462 20.9648 29.4766 21.4238 28.7539 21.7363C28.0378 22.0423 27.2207 22.1953 26.3027 22.1953ZM26.3027 19.9102C26.7064 19.9102 27.0514 19.8288 27.3379 19.666C27.6309 19.5033 27.8555 19.2721 28.0117 18.9727C28.168 18.6667 28.2461 18.3053 28.2461 17.8887C28.2461 17.4655 28.1647 17.1042 28.002 16.8047C27.8392 16.4987 27.6113 16.2643 27.3184 16.1016C27.0254 15.9388 26.6803 15.8574 26.2832 15.8574C25.8926 15.8574 25.5508 15.9388 25.2578 16.1016C24.9648 16.2643 24.737 16.4987 24.5742 16.8047C24.4115 17.1042 24.3301 17.4655 24.3301 17.8887C24.3301 18.3053 24.4115 18.6667 24.5742 18.9727C24.737 19.2721 24.9648 19.5033 25.2578 19.666C25.5573 19.8288 25.9056 19.9102 26.3027 19.9102ZM26.3027 15.2617C25.4303 15.2617 24.6523 15.1055 23.9688 14.793C23.2852 14.474 22.748 14.0378 22.3574 13.4844C21.9733 12.9245 21.7812 12.2832 21.7812 11.5605C21.7812 10.7012 21.9733 9.97526 22.3574 9.38281C22.748 8.79036 23.2819 8.34115 23.959 8.03516C24.6426 7.72917 25.4173 7.57617 26.2832 7.57617C27.1686 7.57617 27.9499 7.72917 28.627 8.03516C29.304 8.34115 29.8346 8.79036 30.2188 9.38281C30.6029 9.97526 30.7949 10.7012 30.7949 11.5605C30.7949 12.2832 30.6029 12.9245 30.2188 13.4844C29.8346 14.0378 29.304 14.474 28.627 14.793C27.9564 15.1055 27.1816 15.2617 26.3027 15.2617ZM26.3027 13.5723C26.6608 13.5723 26.9603 13.4941 27.2012 13.3379C27.4486 13.1751 27.6341 12.9538 27.7578 12.6738C27.888 12.3939 27.9531 12.0684 27.9531 11.6973C27.9531 11.3262 27.8848 11.0072 27.748 10.7402C27.6178 10.4668 27.429 10.252 27.1816 10.0957C26.9342 9.93945 26.6348 9.86133 26.2832 9.86133C25.9382 9.86133 25.6419 9.9362 25.3945 10.0859C25.1471 10.2357 24.9583 10.4473 24.8281 10.7207C24.6979 10.9941 24.6328 11.3197 24.6328 11.6973C24.6328 12.0684 24.6979 12.3939 24.8281 12.6738C24.9583 12.9538 25.1471 13.1751 25.3945 13.3379C25.6484 13.4941 25.9512 13.5723 26.3027 13.5723Z" fill="url(#paint0_linear_101_18998)"/>
<path d="M34.0176 23.2207H31.8984L37.1328 7.78125H39.2422L34.0176 23.2207ZM40.9023 15.0078L41.7129 7.78125H49.7012V10.1445H44.0566L43.7051 13.1816C43.9004 13.0775 44.1836 12.9635 44.5547 12.8398C44.9323 12.7096 45.3587 12.6445 45.834 12.6445C46.752 12.6445 47.5332 12.8366 48.1777 13.2207C48.8223 13.5983 49.3138 14.1452 49.6523 14.8613C49.9974 15.571 50.1699 16.4271 50.1699 17.4297C50.1699 18.2695 49.9941 19.054 49.6426 19.7832C49.2975 20.5059 48.7702 21.0885 48.0605 21.5312C47.3509 21.974 46.4525 22.1953 45.3652 22.1953C44.7467 22.1953 44.151 22.1042 43.5781 21.9219C43.0117 21.7331 42.5039 21.4596 42.0547 21.1016C41.6055 20.7435 41.2441 20.3073 40.9707 19.793C40.7038 19.2786 40.5605 18.6927 40.541 18.0352H43.3535C43.4121 18.6211 43.6172 19.0801 43.9688 19.4121C44.3203 19.7441 44.7793 19.9102 45.3457 19.9102C45.821 19.9102 46.2018 19.793 46.4883 19.5586C46.7812 19.3242 46.9928 19.0085 47.123 18.6113C47.2598 18.2077 47.3281 17.7617 47.3281 17.2734C47.3281 16.7721 47.2435 16.3359 47.0742 15.9648C46.9115 15.5938 46.6641 15.304 46.332 15.0957C46 14.8874 45.5736 14.7832 45.0527 14.7832C44.5384 14.7832 44.1445 14.8646 43.8711 15.0273C43.5977 15.1901 43.3633 15.3691 43.168 15.5645L40.9023 15.0078Z" fill="white"/>
<g clip-path="url(#clip0_101_18998)">
<path d="M176 20.75L169.828 23.995L171.007 17.122L166.007 12.255L172.907 11.255L175.993 5.00201L179.079 11.255L185.979 12.255L180.979 17.122L182.158 23.995L176 20.75Z" fill="url(#paint1_linear_101_18998)"/>
</g>
<g clip-path="url(#clip1_101_18998)">
<path d="M152 20.75L145.828 23.995L147.007 17.122L142.007 12.255L148.907 11.255L151.993 5.00201L155.079 11.255L161.979 12.255L156.979 17.122L158.158 23.995L152 20.75Z" fill="url(#paint2_linear_101_18998)"/>
</g>
<g clip-path="url(#clip2_101_18998)">
<path d="M128 20.75L121.828 23.995L123.007 17.122L118.007 12.255L124.907 11.255L127.993 5.00201L131.079 11.255L137.979 12.255L132.979 17.122L134.158 23.995L128 20.75Z" fill="url(#paint3_linear_101_18998)"/>
</g>
<g clip-path="url(#clip3_101_18998)">
<path d="M104 20.75L97.828 23.995L99.007 17.122L94.007 12.255L100.907 11.255L103.993 5.00201L107.079 11.255L113.979 12.255L108.979 17.122L110.158 23.995L104 20.75Z" fill="url(#paint4_linear_101_18998)"/>
</g>
<g clip-path="url(#clip4_101_18998)">
<path d="M82.631 11.4766C82.7039 11.624 82.8443 11.7264 83.007 11.7501L88.9025 12.6036L84.63 16.7637C84.5122 16.8785 84.4588 17.044 84.4865 17.2061L85.4933 23.0792L80.2335 20.3077C80.1242 20.2501 79.9984 20.2359 79.881 20.2647L79.7677 20.3077L74.4913 23.0811L75.5001 17.2061C75.5278 17.0439 75.4735 16.8785 75.3556 16.7637L71.0822 12.6036L76.9786 11.7501C77.1415 11.7265 77.2827 11.6242 77.3556 11.4766L79.9933 6.1319L82.631 11.4766Z" stroke="url(#paint5_linear_101_18998)" stroke-linecap="round" stroke-linejoin="round"/>
<path d="M83 11.0938V22.3301L80 20.75L73.8281 23.9951L75.0068 17.1221L70.0068 12.2549L76.9072 11.2549L79.9932 5.00195L83 11.0938Z" fill="url(#paint6_linear_101_18998)"/>
</g>
<defs>
<linearGradient id="paint0_linear_101_18998" x1="4.10833" y1="24.9778" x2="34.6834" y2="-5.88913" gradientUnits="userSpaceOnUse">
<stop stop-color="#FFE37A"/>
<stop offset="0.522797" stop-color="#FFC64C"/>
<stop offset="1" stop-color="#FFE37A"/>
</linearGradient>
<linearGradient id="paint1_linear_101_18998" x1="167.616" y1="19.8271" x2="184.362" y2="8.67241" gradientUnits="userSpaceOnUse">
<stop stop-color="#FFE37A"/>
<stop offset="0.522797" stop-color="#FFC64C"/>
<stop offset="1" stop-color="#FFE37A"/>
</linearGradient>
<linearGradient id="paint2_linear_101_18998" x1="143.616" y1="19.8271" x2="160.362" y2="8.67241" gradientUnits="userSpaceOnUse">
<stop stop-color="#FFE37A"/>
<stop offset="0.522797" stop-color="#FFC64C"/>
<stop offset="1" stop-color="#FFE37A"/>
</linearGradient>
<linearGradient id="paint3_linear_101_18998" x1="119.616" y1="19.8271" x2="136.362" y2="8.67241" gradientUnits="userSpaceOnUse">
<stop stop-color="#FFE37A"/>
<stop offset="0.522797" stop-color="#FFC64C"/>
<stop offset="1" stop-color="#FFE37A"/>
</linearGradient>
<linearGradient id="paint4_linear_101_18998" x1="95.6158" y1="19.8271" x2="112.362" y2="8.67241" gradientUnits="userSpaceOnUse">
<stop stop-color="#FFE37A"/>
<stop offset="0.522797" stop-color="#FFC64C"/>
<stop offset="1" stop-color="#FFE37A"/>
</linearGradient>
<linearGradient id="paint5_linear_101_18998" x1="71.6158" y1="19.8271" x2="88.3623" y2="8.67241" gradientUnits="userSpaceOnUse">
<stop stop-color="#FFE37A"/>
<stop offset="0.522797" stop-color="#FFC64C"/>
<stop offset="1" stop-color="#FFE37A"/>
</linearGradient>
<linearGradient id="paint6_linear_101_18998" x1="71.0535" y1="19.8272" x2="84.2955" y2="14.089" gradientUnits="userSpaceOnUse">
<stop stop-color="#FFE37A"/>
<stop offset="0.522797" stop-color="#FFC64C"/>
<stop offset="1" stop-color="#FFE37A"/>
</linearGradient>
<clipPath id="clip0_101_18998">
<rect width="24" height="24" fill="white" transform="translate(164 3)"/>
</clipPath>
<clipPath id="clip1_101_18998">
<rect width="24" height="24" fill="white" transform="translate(140 3)"/>
</clipPath>
<clipPath id="clip2_101_18998">
<rect width="24" height="24" fill="white" transform="translate(116 3)"/>
</clipPath>
<clipPath id="clip3_101_18998">
<rect width="24" height="24" fill="white" transform="translate(92 3)"/>
</clipPath>
<clipPath id="clip4_101_18998">
<rect width="24" height="24" fill="white" transform="translate(68 3)"/>
</clipPath>
</defs>
</svg>
