<svg width="40" height="40" viewBox="0 0 40 40" fill="none" xmlns="http://www.w3.org/2000/svg">
<g clip-path="url(#clip0_101_19181)">
<path d="M20 21.6666C20.9205 21.6666 21.6667 20.9204 21.6667 19.9999C21.6667 19.0794 20.9205 18.3333 20 18.3333C19.0796 18.3333 18.3334 19.0794 18.3334 19.9999C18.3334 20.9204 19.0796 21.6666 20 21.6666Z" stroke="#00CEAF" stroke-width="4" stroke-linecap="round" stroke-linejoin="round"/>
<path d="M20 28.3334C24.6023 28.3334 28.3333 24.6025 28.3333 20.0001C28.3333 15.3977 24.6023 11.6667 20 11.6667C15.3976 11.6667 11.6666 15.3977 11.6666 20.0001C11.6666 24.6025 15.3976 28.3334 20 28.3334Z" stroke="#00CEAF" stroke-width="4" stroke-linecap="round" stroke-linejoin="round"/>
<path d="M20 35C28.2843 35 35 28.2843 35 20C35 11.7157 28.2843 5 20 5C11.7157 5 5 11.7157 5 20C5 28.2843 11.7157 35 20 35Z" stroke="#00CEAF" stroke-width="4" stroke-linecap="round" stroke-linejoin="round"/>
</g>
<defs>
<clipPath id="clip0_101_19181">
<rect width="40" height="40" fill="white"/>
</clipPath>
</defs>
</svg>
