<svg width="48" height="48" viewBox="0 0 48 48" fill="none" xmlns="http://www.w3.org/2000/svg">
<g clip-path="url(#clip0_101_24832)">
<path d="M20 6.39997C16.8715 7.12525 13.9939 8.67436 11.6658 10.8866C9.33773 13.0989 7.64393 15.8938 6.76011 18.9813C5.87628 22.0689 5.83461 25.3367 6.63943 28.4457C7.44424 31.5548 9.06623 34.392 11.3371 36.6629C13.6081 38.9338 16.4452 40.5558 19.5543 41.3606C22.6634 42.1654 25.9311 42.1237 29.0187 41.2399C32.1062 40.3561 34.9011 38.6623 37.1134 36.3342C39.3256 34.0061 40.8748 31.1286 41.6 28C41.6 27.4695 41.3893 26.9608 41.0143 26.5858C40.6392 26.2107 40.1305 26 39.6 26H26C24.9392 26 23.9218 25.5785 23.1716 24.8284C22.4215 24.0782 22 23.0608 22 22V7.99997C21.9752 7.76302 21.9036 7.53336 21.7893 7.3243C21.675 7.11525 21.5204 6.93096 21.3343 6.78213C21.1483 6.6333 20.9345 6.52288 20.7055 6.45728C20.4765 6.39167 20.2367 6.37219 20 6.39997Z" stroke="#00CEAF" stroke-width="4" stroke-linecap="round" stroke-linejoin="round"/>
<path d="M30 7C32.5394 7.89417 34.846 9.3466 36.7497 11.2503C38.6534 13.154 40.1058 15.4606 41 18H32C31.4696 18 30.9609 17.7893 30.5858 17.4142C30.2107 17.0391 30 16.5304 30 16V7Z" stroke="#00CEAF" stroke-width="4" stroke-linecap="round" stroke-linejoin="round"/>
</g>
<defs>
<clipPath id="clip0_101_24832">
<rect width="48" height="48" fill="white"/>
</clipPath>
</defs>
</svg>
