<svg width="48" height="48" viewBox="0 0 48 48" fill="none" xmlns="http://www.w3.org/2000/svg">
<g clip-path="url(#clip0_101_24844)">
<path d="M24 40C26.2091 40 28 38.2091 28 36C28 33.7909 26.2091 32 24 32C21.7909 32 20 33.7909 20 36C20 38.2091 21.7909 40 24 40Z" stroke="#00CEAF" stroke-width="4" stroke-linecap="round" stroke-linejoin="round"/>
<path d="M14 16C16.2091 16 18 14.2091 18 12C18 9.79086 16.2091 8 14 8C11.7909 8 10 9.79086 10 12C10 14.2091 11.7909 16 14 16Z" stroke="#00CEAF" stroke-width="4" stroke-linecap="round" stroke-linejoin="round"/>
<path d="M34 16C36.2091 16 38 14.2091 38 12C38 9.79086 36.2091 8 34 8C31.7909 8 30 9.79086 30 12C30 14.2091 31.7909 16 34 16Z" stroke="#00CEAF" stroke-width="4" stroke-linecap="round" stroke-linejoin="round"/>
<path d="M14 16V20C14 21.0609 14.4214 22.0783 15.1716 22.8284C15.9217 23.5786 16.9391 24 18 24H30C31.0609 24 32.0783 23.5786 32.8284 22.8284C33.5786 22.0783 34 21.0609 34 20V16" stroke="#00CEAF" stroke-width="4" stroke-linecap="round" stroke-linejoin="round"/>
<path d="M24 24V32" stroke="#00CEAF" stroke-width="4" stroke-linecap="round" stroke-linejoin="round"/>
</g>
<defs>
<clipPath id="clip0_101_24844">
<rect width="48" height="48" fill="white"/>
</clipPath>
</defs>
</svg>
