<svg width="48" height="48" viewBox="0 0 48 48" fill="none" xmlns="http://www.w3.org/2000/svg">
<g clip-path="url(#clip0_101_24819)">
<path d="M23.5 4L2 10.4L7.13597 11.925L11.9231 13.35V17.6125C11.7163 17.8563 11.5613 18.0938 11.4386 18.3438C11.1414 18.95 10.954 19.625 10.7861 20.425C10.4695 21.9438 10.3015 23.9062 10.2822 26.0562C9.27434 26.9312 8.61538 28.1875 8.61538 29.6C8.61538 31.6438 10.1142 33.1188 11.9812 33.8062C12.7306 35.8938 13.9775 38.1875 15.7734 40.1313C17.7374 42.25 20.3603 44 23.5 44C26.6397 44 29.2626 42.25 31.2266 40.1313C33.0225 38.1875 34.2694 35.8938 35.0188 33.8062C36.8858 33.1188 38.3846 31.6438 38.3846 29.6C38.3846 28.1875 37.7321 26.9125 36.7114 26.0312C36.692 23.8875 36.524 21.9375 36.2139 20.425C36.046 19.625 35.8586 18.95 35.5614 18.3438C35.4387 18.0938 35.2837 17.8563 35.0769 17.6125V13.35L45 10.4L23.5 4ZM23.5 7.35L33.759 10.4L23.5 13.45L13.241 10.4L23.5 7.35ZM15.2308 14.3375L23.5 16.8L23.991 16.6562L31.7692 14.3375V18.05C31.7498 18.075 31.7692 18.0813 31.6917 18.1313C31.4333 18.3438 30.8971 18.65 30.1606 18.9375C28.6812 19.5063 26.3878 20 23.5 20C20.6122 20 18.3188 19.5063 16.8394 18.9375C16.1029 18.65 15.5667 18.3438 15.3083 18.1313C15.2308 18.0813 15.2502 18.075 15.2308 18.05V14.3375ZM14.0162 21.1313C14.4943 21.4125 15.0111 21.675 15.6184 21.9062C17.563 22.6562 20.2311 23.2 23.5 23.2C26.7689 23.2 29.437 22.6562 31.3816 21.9062C31.9889 21.675 32.5057 21.4125 32.9838 21.1313C33.2422 22.425 33.4231 24.3125 33.4231 26.4V27.7563L34.25 28.225C34.7539 28.5 35.0769 28.9938 35.0769 29.6C35.0769 30.4562 34.418 31.1125 33.5523 31.1812L32.4411 31.2688L32.1116 32.3C31.5625 34.0312 30.335 36.2938 28.7523 38C27.1759 39.7062 25.3347 40.8 23.5 40.8C21.6653 40.8 19.8241 39.7062 18.2477 38C16.665 36.2938 15.4375 34.0312 14.8884 32.3L14.5589 31.2688L13.4477 31.1812C12.582 31.1125 11.9231 30.4562 11.9231 29.6C11.9231 29 12.2526 28.5063 12.7629 28.225L13.6092 27.75L13.5769 26.4V26.3813C13.5769 24.3062 13.7578 22.425 14.0162 21.1313ZM10.5535 26.4H11.9295L10.5406 26.4312L10.5535 26.4ZM18.5385 28C17.6276 28 16.8846 28.7188 16.8846 29.6C16.8846 30.4813 17.6276 31.2 18.5385 31.2C19.4494 31.2 20.1923 30.4813 20.1923 29.6C20.1923 28.7188 19.4494 28 18.5385 28ZM28.4615 28C27.5506 28 26.8077 28.7188 26.8077 29.6C26.8077 30.4813 27.5506 31.2 28.4615 31.2C29.3724 31.2 30.1154 30.4813 30.1154 29.6C30.1154 28.7188 29.3724 28 28.4615 28Z" fill="#00CEAF"/>
</g>
<defs>
<clipPath id="clip0_101_24819">
<rect width="48" height="48" fill="white"/>
</clipPath>
</defs>
</svg>
