<svg width="64" height="64" viewBox="0 0 64 64" fill="none" xmlns="http://www.w3.org/2000/svg">
<g clip-path="url(#clip0_101_18841)">
<path d="M42.6667 24C50.0305 24 56 20.4183 56 16C56 11.5817 50.0305 8 42.6667 8C35.3029 8 29.3334 11.5817 29.3334 16C29.3334 20.4183 35.3029 24 42.6667 24Z" stroke="black" stroke-width="4" stroke-linecap="round" stroke-linejoin="round"/>
<path d="M29.3334 16V26.6667C29.3334 31.0853 35.304 34.6667 42.6667 34.6667C50.0294 34.6667 56 31.0853 56 26.6667V16" stroke="black" stroke-width="4" stroke-linecap="round" stroke-linejoin="round"/>
<path d="M29.3334 26.6666V37.3333C29.3334 41.752 35.304 45.3333 42.6667 45.3333C50.0294 45.3333 56 41.752 56 37.3333V26.6666" stroke="black" stroke-width="4" stroke-linecap="round" stroke-linejoin="round"/>
<path d="M29.3334 37.3334V48C29.3334 52.4187 35.304 56 42.6667 56C50.0294 56 56 52.4187 56 48V37.3334" stroke="black" stroke-width="4" stroke-linecap="round" stroke-linejoin="round"/>
<path d="M18.6667 24H12C10.9391 24 9.92172 24.4214 9.17157 25.1716C8.42143 25.9217 8 26.9391 8 28C8 29.0609 8.42143 30.0783 9.17157 30.8284C9.92172 31.5786 10.9391 32 12 32H14.6667C15.7275 32 16.7449 32.4214 17.4951 33.1716C18.2452 33.9217 18.6667 34.9391 18.6667 36C18.6667 37.0609 18.2452 38.0783 17.4951 38.8284C16.7449 39.5786 15.7275 40 14.6667 40H8" stroke="#00CEAF" stroke-width="4" stroke-linecap="round" stroke-linejoin="round"/>
<path d="M13.3334 21.3334V24M13.3334 40V42.6667V40Z" stroke="#00CEAF" stroke-width="4" stroke-linecap="round" stroke-linejoin="round"/>
</g>
<defs>
<clipPath id="clip0_101_18841">
<rect width="64" height="64" fill="white"/>
</clipPath>
</defs>
</svg>
